<?xml version="1.0" standalone="no"?>
<!DOCTYPE svg PUBLIC "-//W3C//DTD SVG 20010904//EN"
 "http://www.w3.org/TR/2001/REC-SVG-20010904/DTD/svg10.dtd">
<svg version="1.0" xmlns="http://www.w3.org/2000/svg"
 width="920.000000pt" height="512.000000pt" viewBox="0 0 920.000000 512.000000"
 preserveAspectRatio="xMidYMid meet">

<g transform="translate(0.000000,512.000000) scale(0.100000,-0.100000)"
fill="#000000" stroke="none">
<path d="M5084 4766 c-47 -9 -81 -26 -150 -72 -127 -87 -160 -109 -341 -228
-90 -59 -163 -109 -163 -111 0 -1 19 1 43 7 84 19 224 49 299 64 73 14 91 23
288 152 115 75 210 140 210 143 0 8 -72 46 -100 51 -14 3 -52 0 -86 -6z"/>
<path d="M4860 4729 c-25 -5 -162 -29 -305 -54 -143 -25 -272 -48 -286 -51
l-26 -5 63 -122 c34 -67 66 -121 71 -119 17 7 546 362 537 361 -5 -1 -29 -5
-54 -10z"/>
<path d="M5140 4579 c-91 -60 -160 -109 -155 -109 8 0 235 46 378 77 l39 8
-49 66 -48 67 -165 -109z"/>
<path d="M3978 4572 l-138 -25 91 -174 c49 -95 87 -177 85 -182 -3 -5 -23 -11
-43 -13 -34 -4 -308 -60 -578 -118 -55 -12 -174 -37 -265 -56 -91 -19 -210
-44 -265 -55 -55 -12 -115 -24 -132 -26 -18 -3 -33 -9 -33 -14 0 -5 21 -50 47
-99 30 -59 52 -90 63 -90 9 0 61 10 116 21 131 28 232 49 449 94 99 20 218 45
265 55 47 10 166 35 265 55 99 21 190 40 201 42 19 4 31 -12 95 -139 40 -78
84 -165 97 -193 14 -27 26 -52 28 -54 6 -7 294 53 294 60 0 8 -141 284 -177
347 -27 47 -29 45 57 61 56 11 82 16 340 71 80 17 210 44 290 60 80 16 199 41
265 55 66 15 135 29 153 32 18 3 31 9 30 12 -2 4 -31 47 -66 97 l-63 91 -92
-19 c-51 -10 -110 -22 -132 -27 -22 -5 -107 -23 -190 -39 -82 -17 -226 -47
-320 -67 -234 -50 -261 -55 -333 -69 l-63 -13 -16 31 c-9 17 -49 94 -88 171
-40 77 -78 141 -86 141 -8 1 -76 -10 -151 -24z"/>
<path d="M3355 4465 c-192 -35 -374 -67 -402 -71 -29 -3 -53 -9 -53 -13 0 -4
73 -14 163 -23 133 -14 485 -53 755 -84 l54 -6 -67 131 c-46 90 -72 131 -84
130 -9 0 -173 -29 -366 -64z"/>
<path d="M2645 4332 c-58 -20 -115 -58 -115 -76 0 -9 43 -18 148 -30 81 -9
203 -23 272 -31 498 -58 460 -55 530 -39 36 8 121 26 190 39 171 35 177 38
100 46 -301 33 -737 82 -833 94 -154 19 -230 18 -292 -3z"/>
<path d="M2290 4272 c-44 -24 -106 -110 -125 -175 -19 -64 -29 -184 -21 -241
4 -25 18 -58 30 -73 13 -16 36 -66 52 -113 25 -74 29 -100 29 -200 1 -146 14
-193 63 -224 35 -22 39 -29 70 -147 37 -135 61 -223 218 -769 57 -201 102
-370 100 -377 -3 -6 -1 -13 3 -15 5 -2 29 -73 54 -158 38 -132 44 -162 38
-203 -18 -109 14 -310 60 -386 12 -20 30 -34 49 -37 34 -7 27 11 129 -339 38
-132 74 -251 79 -265 14 -35 96 -143 138 -179 45 -40 103 -42 174 -6 63 32
107 32 154 0 45 -30 63 -31 118 -5 24 11 259 75 523 141 264 66 599 151 745
189 146 38 416 108 600 155 860 223 1231 321 1306 346 99 32 130 85 95 163
-21 49 -242 398 -248 392 -2 -2 6 -46 17 -97 15 -66 36 -122 70 -186 l49 -92
-47 -15 c-45 -14 -329 -89 -867 -226 -339 -86 -2102 -541 -2327 -599 -103 -27
-198 -47 -210 -44 -71 17 -137 142 -145 274 -7 103 6 166 53 266 42 89 84 127
130 118 23 -4 45 0 73 15 22 11 435 114 918 229 2007 479 2308 552 2318 565 6
7 55 23 110 35 153 36 205 71 205 138 0 41 -25 79 -347 536 -40 56 -94 134
-121 172 -86 124 -194 278 -252 360 -32 44 -110 159 -175 255 -138 205 -203
297 -228 325 -10 11 -34 44 -53 73 -19 28 -36 52 -38 52 -2 0 -45 -9 -97 -20
-52 -12 -137 -29 -190 -40 -53 -11 -150 -31 -215 -45 -65 -15 -141 -30 -169
-36 -27 -5 -68 -13 -90 -18 -22 -5 -139 -29 -260 -54 -121 -25 -319 -66 -440
-92 -121 -25 -263 -54 -315 -65 -92 -19 -287 -60 -645 -135 -373 -78 -435 -89
-444 -80 -5 6 -44 78 -87 160 -42 83 -122 238 -177 345 -55 107 -127 248 -160
313 -44 85 -65 117 -79 117 -10 0 -35 9 -55 20 -47 25 -98 26 -143 2z m3589
-1001 c44 -104 81 -194 81 -199 0 -12 -112 -35 -120 -25 -4 5 -20 38 -35 76
-30 72 -34 74 -97 57 l-37 -11 30 -69 c16 -38 29 -73 29 -79 0 -13 -110 -35
-119 -24 -11 12 -161 366 -161 379 0 11 71 34 103 34 8 0 28 -31 45 -69 l30
-69 48 10 c27 6 50 12 52 13 2 1 -9 28 -23 60 -32 74 -32 83 8 94 83 24 76 30
166 -178z m-481 22 l3 -52 -49 6 c-31 3 -57 1 -72 -7 -22 -12 -22 -14 -6 -25
9 -7 38 -16 64 -20 111 -16 172 -69 172 -150 0 -80 -65 -124 -182 -125 l-68 0
-20 40 c-32 63 -29 69 38 63 32 -3 70 0 86 6 27 11 28 13 14 27 -9 9 -46 22
-84 30 -38 8 -79 21 -92 30 -62 40 -83 141 -38 183 36 34 93 51 166 48 l65 -2
3 -52z m-279 -202 c44 -104 81 -194 81 -199 0 -14 -110 -37 -119 -25 -11 12
-161 366 -161 380 0 6 17 15 38 21 80 21 72 30 161 -177z m-358 -28 c34 -82
63 -149 64 -150 0 -1 25 4 55 12 85 23 94 20 115 -25 11 -24 15 -44 9 -49 -15
-14 -255 -64 -263 -55 -11 13 -161 367 -161 381 0 6 17 15 38 21 79 21 74 26
143 -135z m-275 77 c10 0 14 -14 14 -50 l0 -50 -49 0 c-101 0 -132 -34 -105
-114 18 -51 73 -106 107 -106 34 0 50 15 42 39 -5 18 -12 20 -44 15 -36 -6
-38 -5 -54 37 -9 24 -14 46 -9 50 7 7 145 39 167 39 16 0 99 -195 91 -215 -10
-27 -96 -57 -178 -63 -65 -4 -83 -1 -123 18 -115 56 -180 239 -116 328 34 49
142 87 215 76 16 -2 35 -4 42 -4z m-327 -276 c45 -107 81 -197 79 -199 -1 -1
-36 -10 -77 -19 l-74 -17 -51 48 c-28 26 -79 75 -114 108 l-62 60 51 -119 c38
-88 48 -121 39 -126 -20 -12 -93 -22 -100 -13 -11 13 -160 367 -160 380 0 6
32 19 71 28 l72 16 43 -38 c24 -21 75 -66 113 -101 l70 -63 -49 113 c-27 62
-47 114 -45 117 2 2 19 7 37 11 74 18 67 26 157 -186z m-526 53 c9 -23 17 -45
17 -48 0 -4 -27 -12 -60 -19 -55 -12 -60 -15 -54 -34 9 -29 8 -29 51 -17 65
18 78 15 98 -28 9 -22 14 -44 11 -49 -3 -6 -25 -13 -49 -17 -56 -10 -57 -11
-45 -43 l11 -29 56 14 c31 7 60 13 64 13 9 0 51 -89 45 -95 -6 -7 -230 -56
-240 -53 -10 4 -168 364 -168 384 0 11 176 60 225 63 15 1 25 -11 38 -42z
m2921 -279 c3 -29 8 -119 11 -199 8 -178 -1 -209 -67 -239 -65 -29 -86 -26
-104 15 -20 49 -18 62 15 68 18 4 30 14 34 28 5 18 -17 46 -115 150 -67 71
-123 129 -124 129 -1 0 4 -17 12 -37 18 -52 17 -63 -7 -63 -31 0 -59 -19 -59
-39 0 -11 16 -56 35 -102 20 -45 34 -83 33 -84 -6 -4 -97 -25 -111 -25 -12 0
-137 272 -137 299 0 6 19 15 41 21 35 10 44 9 57 -4 13 -13 18 -12 43 15 15
16 38 29 51 29 12 0 41 6 63 14 98 34 94 35 164 -56 l63 -83 -6 40 c-3 22 -8
65 -12 96 l-6 57 39 10 c76 20 81 18 87 -40z m-686 -142 c15 -8 35 -22 44 -33
22 -24 118 -242 110 -247 -23 -14 -84 -17 -98 -5 -13 11 -17 10 -25 -4 -24
-42 -118 -61 -167 -33 -51 28 -76 101 -52 147 11 20 79 59 104 59 22 0 30 19
10 27 -9 3 -35 -4 -60 -18 l-44 -24 -32 33 -33 32 22 21 c25 26 115 58 161 59
18 0 45 -6 60 -14z m-339 -104 c23 -17 128 -226 130 -258 1 -11 -71 -34 -106
-34 -13 0 -29 25 -59 97 -44 107 -64 128 -91 100 -16 -16 -15 -22 21 -109 21
-51 40 -98 43 -104 4 -11 -112 -42 -122 -33 -7 8 -125 287 -125 298 0 17 79
34 95 21 10 -8 20 -5 40 14 15 14 36 27 48 30 39 8 100 -2 126 -22z m-783 -67
c21 -33 10 -61 -30 -75 -55 -18 -96 7 -96 59 0 28 21 41 67 41 34 0 46 -5 59
-25z m405 -48 c64 -43 106 -134 93 -202 -9 -48 -61 -92 -119 -101 -95 -14
-167 23 -209 107 -64 128 -8 219 135 219 52 0 73 -5 100 -23z m-631 -66 c11
-27 14 -28 43 -20 44 12 42 13 62 -30 20 -46 16 -56 -24 -64 l-30 -6 26 -61
c27 -62 43 -72 83 -50 17 9 22 5 40 -30 11 -22 18 -44 16 -49 -13 -20 -78 -41
-126 -41 -44 0 -56 4 -78 29 -15 16 -40 61 -56 100 -24 59 -32 71 -47 66 -30
-10 -47 37 -25 69 9 14 16 41 16 60 0 31 4 37 33 45 49 14 54 13 67 -18z m327
-124 c34 -82 63 -150 63 -152 0 -4 -120 -28 -124 -24 -8 9 -126 289 -126 298
0 14 57 30 94 28 28 -2 32 -10 93 -150z m-871 38 c21 -33 10 -61 -30 -75 -55
-18 -96 7 -96 59 0 28 21 41 67 41 34 0 46 -5 59 -25z m372 -57 l3 -48 -44 0
c-60 0 -74 -17 -58 -70 22 -73 78 -84 138 -28 l22 21 21 -48 21 -48 -21 -22
c-49 -52 -173 -58 -234 -12 -44 34 -86 118 -86 174 0 79 80 135 185 130 l50
-2 3 -47z m-592 -49 c50 -24 89 -72 115 -140 35 -92 17 -171 -50 -214 -42 -28
-208 -72 -220 -59 -11 13 -161 367 -161 380 0 17 144 52 214 53 41 1 73 -5
102 -20z m321 -132 c34 -82 63 -150 63 -152 0 -4 -120 -28 -124 -24 -8 9 -126
289 -126 298 0 14 57 30 94 28 28 -2 32 -10 93 -150z"/>
<path d="M5823 2309 c-26 -10 -30 -37 -7 -46 21 -8 49 21 38 40 -7 10 -15 12
-31 6z"/>
<path d="M5025 2199 c-21 -32 29 -129 66 -129 27 0 34 24 19 63 -24 59 -68 94
-85 66z"/>
<path d="M3618 1933 c-10 -2 -18 -6 -18 -7 0 -5 82 -191 85 -194 9 -9 47 12
61 33 14 22 14 29 -1 74 -25 75 -71 109 -127 94z"/>
<path d="M5515 4204 c-60 -13 -168 -36 -238 -51 l-128 -28 108 -12 c59 -6 189
-21 288 -32 99 -12 185 -21 193 -21 7 0 -7 28 -34 68 -76 109 -62 103 -189 76z"/>
<path d="M2550 4197 c0 -2 23 -49 51 -105 57 -115 50 -112 164 -87 39 8 149
31 245 51 231 48 288 62 270 63 -15 1 -80 9 -489 55 -236 27 -241 28 -241 23z"/>
<path d="M4920 4079 c-47 -11 -105 -23 -130 -28 -25 -5 -74 -15 -110 -22 -60
-12 -63 -13 -35 -21 30 -8 856 -101 1010 -114 49 -4 102 -2 138 6 l57 11 -16
27 c-8 15 -25 39 -37 54 -24 29 18 22 -462 73 -77 8 -170 19 -207 25 -86 13
-105 12 -208 -11z"/>
<path d="M4582 3962 c29 -70 146 -282 156 -282 10 0 149 28 392 80 25 6 99 21
165 35 66 13 143 29 170 35 28 6 68 14 90 19 l40 8 -40 6 c-22 4 -184 23 -360
43 -176 19 -376 42 -445 50 -144 16 -173 17 -168 6z"/>
<path d="M3965 3879 c-22 -4 -115 -24 -206 -43 -158 -32 -170 -37 -240 -84
-41 -27 -181 -120 -311 -206 -131 -86 -238 -159 -238 -162 0 -16 32 -64 43
-64 6 1 60 11 119 24 103 23 114 28 222 102 89 61 307 204 311 204 3 0 13 7
22 15 10 8 90 62 178 120 88 57 156 104 150 104 -5 -1 -28 -5 -50 -10z"/>
<path d="M3721 3635 c-195 -129 -356 -236 -358 -239 -3 -3 3 -3 14 -1 10 3 86
18 168 35 83 17 215 45 295 61 285 60 375 79 383 79 6 0 -141 300 -147 300 -1
0 -161 -106 -355 -235z"/>
<path d="M3380 3759 c-185 -39 -525 -109 -532 -109 -4 0 -8 -5 -8 -11 0 -13
87 -189 100 -203 5 -5 122 67 262 159 230 153 281 188 268 184 -3 -1 -43 -10
-90 -20z"/>
</g>
</svg>
